<svg xmlns="http://www.w3.org/2000/svg" xmlns:xlink="http://www.w3.org/1999/xlink" style="margin:auto;background:#ffffff00;display:block;z-index:1;position:relative" width="1366" height="663" preserveAspectRatio="xMidYMid" viewBox="0 0 1366 663">
    <g transform="translate(683,331.5) scale(1,1) translate(-683,-331.5)">
      <path id="path0" d="M 497.50378781026376 145.72299549023654
    c 0 35.96928262698397 -8.800994685325863 10.331602456686884 -19.13259714201275 10.331602456686884
    S 459.2385935262383 181.6922781172205 459.2385935262383 145.72299549023654
    s 8.800994685325863 -10.331602456686884 19.13259714201275 -10.331602456686884
    S 497.50378781026376 109.75371286325257 497.50378781026376 145.72299549023654
    z" fill="none" stroke="none"></path>
      <circle cx="0" cy="0" r="6.625157925355001" fill="#9df871" opacity="0.9">
        <animateMotion begin="-4.239342226889176s" dur="10s" repeatCount="indefinite">
          <mpath xlink:href="#path0"></mpath>
        </animateMotion>
      </circle>
      <path id="path1" d="M 538.9601863975546 622.0040423769121
    c 0 22.231728415353313 -5.439678229288576 6.385709225686591 -11.825387454975168 6.385709225686591
    S 515.3094114876043 644.2357707922655 515.3094114876043 622.0040423769121
    s 5.439678229288576 -6.385709225686591 11.825387454975168 -6.385709225686591
    S 538.9601863975546 599.7723139615588 538.9601863975546 622.0040423769121
    z" fill="none" stroke="none"></path>
      <circle cx="0" cy="0" r="6.197305378924517" fill="#de9dd6" opacity="0.9">
        <animateMotion begin="-3.0657230256633605s" dur="10s" repeatCount="indefinite">
          <mpath xlink:href="#path1"></mpath>
        </animateMotion>
      </circle>
      <path id="path2" d="M 1171.2779290884696 178.89995620823865
    c 0 35.51940891967633 -8.69091920375059 10.202383413098522 -18.893302616849112 10.202383413098522
    S 1133.4913238547715 214.41936512791497 1133.4913238547715 178.89995620823865
    s 8.69091920375059 -10.202383413098522 18.893302616849112 -10.202383413098522
    S 1171.2779290884696 143.38054728856233 1171.2779290884696 178.89995620823865
    z" fill="none" stroke="none"></path>
      <circle cx="0" cy="0" r="6.768806465628615" fill="#ff708e" opacity="0.9">
        <animateMotion begin="-8.96701037214283s" dur="10s" repeatCount="indefinite">
          <mpath xlink:href="#path2"></mpath>
        </animateMotion>
      </circle>
      <path id="path3" d="M 519.3464763472183 531.7381068445612
    c 0 19.480839783504727 -4.7665884576660495 5.595560363347103 -10.362148821013154 5.595560363347103
    S 498.622178705192 551.218946628066 498.622178705192 531.7381068445612
    s 4.7665884576660495 -5.595560363347103 10.362148821013154 -5.595560363347103
    S 519.3464763472183 512.2572670610565 519.3464763472183 531.7381068445612
    z" fill="none" stroke="none"></path>
      <circle cx="0" cy="0" r="7.697062961184574" fill="#51cacc" opacity="0.9">
        <animateMotion begin="-4.559739700512728s" dur="10s" repeatCount="indefinite">
          <mpath xlink:href="#path3"></mpath>
        </animateMotion>
      </circle>
      <path id="path4" d="M 313.2364473394097 588.3512926564078
    c 0 30.530629852026866 -7.470260495708701 8.769436234092824 -16.239696729801526 8.769436234092824
    S 280.7570538798066 618.8819225084347 280.7570538798066 588.3512926564078
    s 7.470260495708701 -8.769436234092824 16.239696729801526 -8.769436234092824
    S 313.2364473394097 557.820662804381 313.2364473394097 588.3512926564078
    z" fill="none" stroke="none"></path>
      <circle cx="0" cy="0" r="4.680210195615817" fill="#9df871" opacity="0.9">
        <animateMotion begin="-1.7690014791263131s" dur="10s" repeatCount="indefinite">
          <mpath xlink:href="#path4"></mpath>
        </animateMotion>
      </circle>
      <path id="path5" d="M 1315.7536583074377 536.6697170016329
    c 0 25.29274414184882 -6.188650162367264 7.264937147126789 -13.453587309494052 7.264937147126789
    S 1288.8464836884498 561.9624611434817 1288.8464836884498 536.6697170016329
    s 6.188650162367264 -7.264937147126789 13.453587309494052 -7.264937147126789
    S 1315.7536583074377 511.3769728597841 1315.7536583074377 536.6697170016329
    z" fill="none" stroke="none"></path>
      <circle cx="0" cy="0" r="5.642982352504753" fill="#de9dd6" opacity="0.9">
        <animateMotion begin="-3.311054042204411s" dur="10s" repeatCount="indefinite">
          <mpath xlink:href="#path5"></mpath>
        </animateMotion>
      </circle>
      <path id="path6" d="M 987.781110201893 98.47857724070889
    c 0 36.67306500347719 -8.97319675616995 10.533752713764725 -19.506949469934675 10.533752713764725
    S 948.7672112620237 135.15164224418606 948.7672112620237 98.47857724070889
    s 8.97319675616995 -10.533752713764725 19.506949469934675 -10.533752713764725
    S 987.781110201893 61.805512237231696 987.781110201893 98.47857724070889
    z" fill="none" stroke="none"></path>
      <circle cx="0" cy="0" r="5.8219859174977335" fill="#9df871" opacity="0.9">
        <animateMotion begin="-5.301119192510704s" dur="10s" repeatCount="indefinite">
          <mpath xlink:href="#path6"></mpath>
        </animateMotion>
      </circle>
      <path id="path7" d="M 683.160798020031 516.8493252787739
    c 0 37.5135286082837 -9.17884210628218 10.775162472592127 -19.954004578874308 10.775162472592127
    S 643.2527888622824 554.3628538870576 643.2527888622824 516.8493252787739
    s 9.17884210628218 -10.775162472592127 19.954004578874308 -10.775162472592127
    S 683.160798020031 479.3357966704902 683.160798020031 516.8493252787739
    z" fill="none" stroke="none"></path>
      <circle cx="0" cy="0" r="7.532457041096124" fill="#9df871" opacity="0.9">
        <animateMotion begin="-6.301224326224919s" dur="10s" repeatCount="indefinite">
          <mpath xlink:href="#path7"></mpath>
        </animateMotion>
      </circle>
      <path id="path8" d="M 1040.8705311531915 240.1877440046246
    c 0 36.87774639462066 -9.02327837315186 10.592544177178274 -19.615822550330137 10.592544177178274
    S 1001.6388860525312 277.0654903992453 1001.6388860525312 240.1877440046246
    s 9.02327837315186 -10.592544177178274 19.615822550330137 -10.592544177178274
    S 1040.8705311531915 203.30999761000393 1040.8705311531915 240.1877440046246
    z" fill="none" stroke="none"></path>
      <circle cx="0" cy="0" r="6.637516124209919" fill="#de9dd6" opacity="0.9">
        <animateMotion begin="-9.451623474896957s" dur="10s" repeatCount="indefinite">
          <mpath xlink:href="#path8"></mpath>
        </animateMotion>
      </circle>
      <path id="path9" d="M 92.76350335234211 118.92111843198228
    c 0 23.02411749039524 -5.633560662543515 6.6133103429858675 -12.246871005529382 6.6133103429858675
    S 68.26976134128334 141.94523592237752 68.26976134128334 118.92111843198228
    s 5.633560662543515 -6.6133103429858675 12.246871005529382 -6.6133103429858675
    S 92.76350335234211 95.89700094158704 92.76350335234211 118.92111843198228
    z" fill="none" stroke="none"></path>
      <circle cx="0" cy="0" r="6.032440623314079" fill="#9df871" opacity="0.9">
        <animateMotion begin="-0.5614330441986826s" dur="10s" repeatCount="indefinite">
          <mpath xlink:href="#path9"></mpath>
        </animateMotion>
      </circle>
      <path id="path10" d="M 702.5008956631741 292.27091636285525
    c 0 36.930608028250965 -9.03621260265715 10.607727837901875 -19.643940440559025 10.607727837901875
    S 663.213014782056 329.2015243911062 663.213014782056 292.27091636285525
    s 9.03621260265715 -10.607727837901875 19.643940440559025 -10.607727837901875
    S 702.5008956631741 255.3403083346043 702.5008956631741 292.27091636285525
    z" fill="none" stroke="none"></path>
      <circle cx="0" cy="0" r="6.6420772766152085" fill="#51cacc" opacity="0.9">
        <animateMotion begin="-4.034653195332529s" dur="10s" repeatCount="indefinite">
          <mpath xlink:href="#path10"></mpath>
        </animateMotion>
      </circle>
      <path id="path11" d="M 677.3688725558042 168.74785446948945
    c 0 24.938117682224437 -6.101879858416617 7.163076355532551 -13.26495621394917 7.163076355532551
    S 650.8389601279058 193.68597215171388 650.8389601279058 168.74785446948945
    s 6.101879858416617 -7.163076355532551 13.26495621394917 -7.163076355532551
    S 677.3688725558042 143.80973678726502 677.3688725558042 168.74785446948945
    z" fill="none" stroke="none"></path>
      <circle cx="0" cy="0" r="5.6225607828778355" fill="#51cacc" opacity="0.9">
        <animateMotion begin="-5.853759840320554s" dur="10s" repeatCount="indefinite">
          <mpath xlink:href="#path11"></mpath>
        </animateMotion>
      </circle>
      <path id="path12" d="M 492.8989705052358 566.7428397496741
    c 0 19.626901307610826 -4.80232691569201 5.637514205377578 -10.439841121069588 5.637514205377578
    S 472.0192882630966 586.369741057285 472.0192882630966 566.7428397496741
    s 4.80232691569201 -5.637514205377578 10.439841121069588 -5.637514205377578
    S 492.8989705052358 547.1159384420632 492.8989705052358 566.7428397496741
    z" fill="none" stroke="none"></path>
      <circle cx="0" cy="0" r="7.8918927402210555" fill="#de9dd6" opacity="0.9">
        <animateMotion begin="-7.011212369159752s" dur="10s" repeatCount="indefinite">
          <mpath xlink:href="#path12"></mpath>
        </animateMotion>
      </circle>
      <path id="path13" d="M 182.36670186871362 216.1402436253963
    c 0 34.93382816803883 -8.54763880707333 10.034184686564345 -18.581823493637675 10.034184686564345
    S 145.20305488143828 251.0740717934351 145.20305488143828 216.1402436253963
    s 8.54763880707333 -10.034184686564345 18.581823493637675 -10.034184686564345
    S 182.36670186871362 181.20641545735748 182.36670186871362 216.1402436253963
    z" fill="none" stroke="none"></path>
      <circle cx="0" cy="0" r="5.84281050979853" fill="#e0ff77" opacity="0.9">
        <animateMotion begin="-0.3572157320664049s" dur="10s" repeatCount="indefinite">
          <mpath xlink:href="#path13"></mpath>
        </animateMotion>
      </circle>
      <path id="path14" d="M 555.1380927047916 97.7716337124948
    c 0 21.315065167001766 -5.215388285542985 6.122412335202635 -11.33780062074562 6.122412335202635
    S 532.4624914633004 119.08669887949657 532.4624914633004 97.7716337124948
    s 5.215388285542985 -6.122412335202635 11.33780062074562 -6.122412335202635
    S 555.1380927047916 76.45656854549304 555.1380927047916 97.7716337124948
    z" fill="none" stroke="none"></path>
      <circle cx="0" cy="0" r="5.965946269612654" fill="#de9dd6" opacity="0.9">
        <animateMotion begin="-9.32282648569458s" dur="10s" repeatCount="indefinite">
          <mpath xlink:href="#path14"></mpath>
        </animateMotion>
      </circle>
      <path id="path15" d="M 443.0467112491268 486.8872344478738
    c 0 35.940682861345536 -8.793996870329226 10.323387630386483 -19.11738450071571 10.323387630386483
    S 404.81194224769536 522.8279173092194 404.81194224769536 486.8872344478738
    s 8.793996870329226 -10.323387630386483 19.11738450071571 -10.323387630386483
    S 443.0467112491268 450.9465515865283 443.0467112491268 486.8872344478738
    z" fill="none" stroke="none"></path>
      <circle cx="0" cy="0" r="5.48095884891322" fill="#51cacc" opacity="0.9">
        <animateMotion begin="-5.546454787009118s" dur="10s" repeatCount="indefinite">
          <mpath xlink:href="#path15"></mpath>
        </animateMotion>
      </circle>
      <path id="path16" d="M 1224.0145248118042 330.412144403258
    c 0 23.133502617927075 -5.6603251086417306 6.644729475362032 -12.305054584003763 6.644729475362032
    S 1199.4044156437967 353.5456470211851 1199.4044156437967 330.412144403258
    s 5.6603251086417306 -6.644729475362032 12.305054584003763 -6.644729475362032
    S 1224.0145248118042 307.27864178533093 1224.0145248118042 330.412144403258
    z" fill="none" stroke="none"></path>
      <circle cx="0" cy="0" r="5.7499335236784965" fill="#ff708e" opacity="0.9">
        <animateMotion begin="-2.460260358464992s" dur="10s" repeatCount="indefinite">
          <mpath xlink:href="#path16"></mpath>
        </animateMotion>
      </circle>
      <path id="path17" d="M 914.5918191915528 596.5416551425235
    c 0 24.248592153581946 -5.933166165238135 6.965021150496942 -12.898187315735077 6.965021150496942
    S 888.7954445600826 620.7902472961055 888.7954445600826 596.5416551425235
    s 5.933166165238135 -6.965021150496942 12.898187315735077 -6.965021150496942
    S 914.5918191915528 572.2930629889415 914.5918191915528 596.5416551425235
    z" fill="none" stroke="none"></path>
      <circle cx="0" cy="0" r="6.516658994107142" fill="#51cacc" opacity="0.9">
        <animateMotion begin="-9.355347968998746s" dur="10s" repeatCount="indefinite">
          <mpath xlink:href="#path17"></mpath>
        </animateMotion>
      </circle>
      <path id="path18" d="M 27.115177767872126 571.3383126021438
    c 0 20.784722993677537 -5.085623711218972 5.970080008822272 -11.055703720041244 5.970080008822272
    S 5.003770327789638 592.1230355958213 5.003770327789638 571.3383126021438
    s 5.085623711218972 -5.970080008822272 11.055703720041244 -5.970080008822272
    S 27.115177767872126 550.5535896084663 27.115177767872126 571.3383126021438
    z" fill="none" stroke="none"></path>
      <circle cx="0" cy="0" r="7.626998777850273" fill="#9df871" opacity="0.9">
        <animateMotion begin="-2.2104560200932233s" dur="10s" repeatCount="indefinite">
          <mpath xlink:href="#path18"></mpath>
        </animateMotion>
      </circle>
      <path id="path19" d="M 797.5110722315593 468.9560230019141
    c 0 21.47342648535432 -5.254136267693077 6.1678990968570915 -11.422035364550169 6.1678990968570915
    S 774.6670015024589 490.4294494872684 774.6670015024589 468.9560230019141
    s 5.254136267693077 -6.1678990968570915 11.422035364550169 -6.1678990968570915
    S 797.5110722315593 447.4825965165598 797.5110722315593 468.9560230019141
    z" fill="none" stroke="none"></path>
      <circle cx="0" cy="0" r="6.210269336508518" fill="#9df871" opacity="0.9">
        <animateMotion begin="-8.603308169823848s" dur="10s" repeatCount="indefinite">
          <mpath xlink:href="#path19"></mpath>
        </animateMotion>
      </circle>
      <path id="path20" d="M 236.91016881876482 329.7568355433011
    c 0 31.35655676480048 -7.67234899564267 9.006670560102267 -16.679019555744937 9.006670560102267
    S 203.55212970727496 361.1133923081016 203.55212970727496 329.7568355433011
    s 7.67234899564267 -9.006670560102267 16.679019555744937 -9.006670560102267
    S 236.91016881876482 298.40027877850065 236.91016881876482 329.7568355433011
    z" fill="none" stroke="none"></path>
      <circle cx="0" cy="0" r="6.279181936474465" fill="#51cacc" opacity="0.9">
        <animateMotion begin="-1.9109289711364807s" dur="10s" repeatCount="indefinite">
          <mpath xlink:href="#path20"></mpath>
        </animateMotion>
      </circle>
      <path id="path21" d="M 570.6559432814528 523.2023786288579
    c 0 29.441602781195638 -7.203796425186165 8.456630586088108 -15.660427011274274 8.456630586088108
    S 539.3350892589043 552.6439814100536 539.3350892589043 523.2023786288579
    s 7.203796425186165 -8.456630586088108 15.660427011274274 -8.456630586088108
    S 570.6559432814528 493.7607758476623 570.6559432814528 523.2023786288579
    z" fill="none" stroke="none"></path>
      <circle cx="0" cy="0" r="4.565071412952554" fill="#ff708e" opacity="0.9">
        <animateMotion begin="-1.3035590087349291s" dur="10s" repeatCount="indefinite">
          <mpath xlink:href="#path21"></mpath>
        </animateMotion>
      </circle>
      <path id="path22" d="M 1206.8707663764076 179.96333779306775
    c 0 34.68742617586817 -8.487348957925189 9.963409646260006 -18.450758604185193 9.963409646260006
    S 1169.969249168037 214.6507639689359 1169.969249168037 179.96333779306775
    s 8.487348957925189 -9.963409646260006 18.450758604185193 -9.963409646260006
    S 1206.8707663764076 145.2759116171996 1206.8707663764076 179.96333779306775
    z" fill="none" stroke="none"></path>
      <circle cx="0" cy="0" r="6.409056156517514" fill="#51cacc" opacity="0.9">
        <animateMotion begin="-8.987755169470022s" dur="10s" repeatCount="indefinite">
          <mpath xlink:href="#path22"></mpath>
        </animateMotion>
      </circle>
      <path id="path23" d="M 1285.5371775945787 636.6728821319268
    c 0 35.12292565990208 -8.593907342316465 10.088499923588895 -18.68240726590536 10.088499923588895
    S 1248.172363062768 671.7958077918289 1248.172363062768 636.6728821319268
    s 8.593907342316465 -10.088499923588895 18.68240726590536 -10.088499923588895
    S 1285.5371775945787 601.5499564720247 1285.5371775945787 636.6728821319268
    z" fill="none" stroke="none"></path>
      <circle cx="0" cy="0" r="6.203604438346677" fill="#9df871" opacity="0.9">
        <animateMotion begin="-6.133634501558469s" dur="10s" repeatCount="indefinite">
          <mpath xlink:href="#path23"></mpath>
        </animateMotion>
      </circle>
      <path id="path24" d="M 155.45175471070112 471.4357230405569
    c 0 32.44371046239385 -7.938354687607006 9.31893811153866 -17.257292799145667 9.31893811153866
    S 120.9371691124098 503.87943350295075 120.9371691124098 471.4357230405569
    s 7.938354687607006 -9.31893811153866 17.257292799145667 -9.31893811153866
    S 155.45175471070112 438.9920125781631 155.45175471070112 471.4357230405569
    z" fill="none" stroke="none"></path>
      <circle cx="0" cy="0" r="7.780001860226189" fill="#9df871" opacity="0.9">
        <animateMotion begin="-9.969486374548044s" dur="10s" repeatCount="indefinite">
          <mpath xlink:href="#path24"></mpath>
        </animateMotion>
      </circle>
      <path id="path25" d="M 105.67712348895085 156.4681764365322
    c 0 23.647842009615655 -5.786174108735745 6.7924652580810925 -12.578639366816837 6.7924652580810925
    S 80.51984475531717 180.11601844614785 80.51984475531717 156.4681764365322
    s 5.786174108735745 -6.7924652580810925 12.578639366816837 -6.7924652580810925
    S 105.67712348895085 132.82033442691653 105.67712348895085 156.4681764365322
    z" fill="none" stroke="none"></path>
      <circle cx="0" cy="0" r="5.986931296851621" fill="#ff708e" opacity="0.9">
        <animateMotion begin="-8.285561796662744s" dur="10s" repeatCount="indefinite">
          <mpath xlink:href="#path25"></mpath>
        </animateMotion>
      </circle>
      <path id="path26" d="M 844.4781365247222 387.45899806224617
    c 0 21.067023666417235 -5.154697280080812 6.0511663722687805 -11.205863652349592 6.0511663722687805
    S 822.0664092200232 408.5260217286634 822.0664092200232 387.45899806224617
    s 5.154697280080812 -6.0511663722687805 11.205863652349592 -6.0511663722687805
    S 844.4781365247222 366.3919743958289 844.4781365247222 387.45899806224617
    z" fill="none" stroke="none"></path>
      <circle cx="0" cy="0" r="4.5812995625220845" fill="#9df871" opacity="0.9">
        <animateMotion begin="-9.214176993424882s" dur="10s" repeatCount="indefinite">
          <mpath xlink:href="#path26"></mpath>
        </animateMotion>
      </circle>
      <path id="path27" d="M 179.26566022866356 149.29458438135862
    c 0 32.64258392540439 -7.987015215790435 9.37606134027573 -17.363076556066165 9.37606134027573
    S 144.5395071165312 181.937168306763 144.5395071165312 149.29458438135862
    s 7.987015215790435 -9.37606134027573 17.363076556066165 -9.37606134027573
    S 179.26566022866356 116.65200045595424 179.26566022866356 149.29458438135862
    z" fill="none" stroke="none"></path>
      <circle cx="0" cy="0" r="5.091771635680772" fill="#9df871" opacity="0.9">
        <animateMotion begin="-6.4009350854495235s" dur="10s" repeatCount="indefinite">
          <mpath xlink:href="#path27"></mpath>
        </animateMotion>
      </circle>
      <path id="path28" d="M 406.70280503609115 185.7012563145733
    c 0 23.69455533871896 -5.797603965856767 6.805882916440552 -12.603486882297318 6.805882916440552
    S 381.4958312714965 209.39581165329227 381.4958312714965 185.7012563145733
    s 5.797603965856767 -6.805882916440552 12.603486882297318 -6.805882916440552
    S 406.70280503609115 162.00670097585433 406.70280503609115 185.7012563145733
    z" fill="none" stroke="none"></path>
      <circle cx="0" cy="0" r="7.4613095299921355" fill="#51cacc" opacity="0.9">
        <animateMotion begin="-4.89680462723403s" dur="10s" repeatCount="indefinite">
          <mpath xlink:href="#path28"></mpath>
        </animateMotion>
      </circle>
      <path id="path29" d="M 481.9497342150073 201.66519797507706
    c 0 29.37892395058111 -7.188460115567718 8.438627092188192 -15.62708720775591 8.438627092188192
    S 450.6955597994955 231.04412192565817 450.6955597994955 201.66519797507706
    s 7.188460115567718 -8.438627092188192 15.62708720775591 -8.438627092188192
    S 481.9497342150073 172.28627402449595 481.9497342150073 201.66519797507706
    z" fill="none" stroke="none"></path>
      <circle cx="0" cy="0" r="5.5366358938916775" fill="#e0ff77" opacity="0.9">
        <animateMotion begin="-9.06870716315317s" dur="10s" repeatCount="indefinite">
          <mpath xlink:href="#path29"></mpath>
        </animateMotion>
      </circle>
    </g>
  </svg>